<?xml version="1.0" encoding="UTF-8"?>
<svg width="96.044" height="52.686" version="1.1" viewBox="0 0 96.044 52.686" xmlns="http://www.w3.org/2000/svg">
 <g transform="translate(-111.33 -524.55)">
  <path d="m121.16 553.22v8.6133h7.8418v-1.5976h-6.2441v-7.0156z" fill="#b3b3b3" fill-rule="evenodd"/>
  <g stop-color="#000000" stroke-width="1px" style="text-decoration-color:#000000;text-decoration-line:none" aria-label="sub">
   <path d="m117.64 548.59q0.0293-0.20533 0.14666-0.176 0.14667 0.0293 0.29334 0.11734 0.46933 0.264 1.1733 0.46933t1.408 0.32267q0.73333 0.11733 1.2613 0.11733 0.76266 0 1.408-0.20533 0.64533-0.23467 1.056-0.73334 0.41067-0.49866 0.41067-1.2613 0-0.93866-0.73333-1.3493-0.73333-0.44-2.4347-0.67466-1.0853-0.176-2.0533-0.55734-0.93866-0.38133-1.5253-1.144-0.58666-0.76266-0.58666-2.024 0-1.3787 0.704-2.288 0.73333-0.93867 1.8773-1.408 1.1733-0.46933 2.4933-0.46933 1.056 0 2.288 0.29333 1.2613 0.29333 1.9947 0.792 0.176 0.11733 0.176 0.20533 0.0293 0.0587-0.0293 0.20534l-0.46934 1.3787q-0.088 0.29333-0.41066 0.11733-0.58667-0.38133-1.584-0.67466-0.99733-0.32267-1.9653-0.32267-1.1147 0-1.848 0.55733-0.704 0.55734-0.704 1.3787 0 0.90933 0.73333 1.2907 0.76267 0.38134 2.1413 0.58667 0.90934 0.14667 1.672 0.38133 0.792 0.20534 1.408 0.616 0.616 0.41067 0.93867 1.0853 0.35199 0.67466 0.35199 1.76 0 1.2907-0.49866 2.1413-0.46933 0.85067-1.2613 1.3787t-1.76 0.76266q-0.93867 0.20534-1.8773 0.20534-0.46934 0-1.2907-0.11734-0.792-0.11733-1.6133-0.35199-0.82133-0.264-1.3787-0.616-0.11734-0.088-0.176-0.14667-0.0587-0.088-0.0293-0.20533z"/>
   <path d="m135.44 551.44q-2.288 0-3.5493-0.87999-1.232-0.88-1.7307-2.376-0.46933-1.5253-0.46933-3.3147 0-1.2907 0.0293-2.5813 0.0587-1.2907 0.14667-2.4347 0.088-1.144 0.14667-1.9067 0.0293-0.352 0.11733-0.41067 0.11733-0.0587 0.41067-0.0587h1.6133q0.29333 0 0.41066 0.0293 0.11734 0.0293 0.0587 0.38133 0 0.176-0.0587 0.90933-0.0293 0.73334-0.088 1.7893-0.0587 1.056-0.088 2.2293-0.0293 1.144-0.0293 2.1707 0 2.0827 0.704 3.2267 0.73333 1.1147 2.4053 1.1147 0.20533 0 0.616-0.0293t0.85067-0.11733q0.44-0.088 0.73333-0.264t0.29333-0.46933v-10.619q0-0.11733 0.0293-0.23466 0.0293-0.11734 0.14667-0.11734h2.112q0.088 0 0.176 0.0587 0.11733 0.0293 0.11733 0.20533v12.144q0 0.352-0.20533 0.528-0.176 0.14667-0.76267 0.352-0.29333 0.088-0.99733 0.264-0.704 0.14666-1.5547 0.29333-0.85067 0.11733-1.584 0.11733z"/>
   <path d="m149.14 551.5q-1.496 0-2.6987-0.264-1.1733-0.264-1.496-0.38133-0.41066-0.14667-0.616-0.264-0.20533-0.11733-0.29333-0.352-0.0587-0.23467-0.14667-0.64533-0.088-0.528-0.176-1.6133-0.0587-1.1147-0.11733-2.376-0.0293-1.2907-0.0293-2.3467-0.0293-3.3147 0.088-6.5413 0.14666-3.2267 0.44-5.896 0-0.14667 0.088-0.20534 0.088-0.0587 0.264-0.0587h1.9067q0.32267 0 0.32267 0.11733 0.0293 0.11733 0 0.38133-0.0587 0.49867-0.14667 1.2027-0.0587 0.67466-0.11733 1.4667-0.0587 0.76267-0.11734 1.496-0.0293 0.73333-0.0587 1.32 0 0.55733 0 0.88 0 0.264 0.11733 0.352 0.14667 0.0587 0.352 0 0.38133-0.11734 1.144-0.264 0.76266-0.14667 1.4667-0.14667 0.99734 0 1.9947 0.32267 1.0267 0.32266 1.848 1.144 0.82133 0.79199 1.32 2.2293 0.528 1.408 0.528 3.6373 0 3.5493-1.584 5.192-1.5547 1.6133-4.2827 1.6133zm-0.0587-2.024q0.93866 0 1.672-0.44 0.76267-0.46933 1.1733-1.5253 0.44-1.056 0.44-2.8747 0-1.6427-0.29334-2.64-0.29333-0.99733-0.82133-1.5253-0.49867-0.528-1.056-0.704-0.55733-0.20533-1.1147-0.20533-0.32267 0-0.85067 0.088-0.49867 0.088-0.968 0.20533-0.44 0.11733-0.64533 0.176-0.14667 0.0293-0.264 0.11733-0.088 0.088-0.088 0.32267-0.0293 0.55733-0.0293 1.4667 0 0.90933 0 2.0533 0.0293 1.1147 0.0587 2.288 0.0587 1.1733 0.11734 2.2587 0.0293 0.23466 0.088 0.352 0.088 0.11733 0.20533 0.176 0.38133 0.14666 0.99733 0.29333 0.64533 0.11733 1.3787 0.11733z"/>
  </g>
  <g fill="#811728" stop-color="#000000" stroke-width="1px" style="text-decoration-color:#000000;text-decoration-line:none" aria-label="spawn">
   <path d="m131.3 565.23q0.0293-0.20533 0.14667-0.176 0.14666 0.0293 0.29333 0.11734 0.46933 0.264 1.1733 0.46933t1.408 0.32266q0.73333 0.11734 1.2613 0.11734 0.76267 0 1.408-0.20534 0.64533-0.23466 1.056-0.73333 0.41067-0.49866 0.41067-1.2613 0-0.93867-0.73334-1.3493-0.73333-0.44-2.4347-0.67467-1.0853-0.176-2.0533-0.55733-0.93867-0.38133-1.5253-1.144-0.58667-0.76266-0.58667-2.024 0-1.3787 0.704-2.288 0.73333-0.93867 1.8773-1.408 1.1733-0.46934 2.4933-0.46934 1.056 0 2.288 0.29334 1.2613 0.29333 1.9947 0.792 0.176 0.11733 0.176 0.20533 0.0293 0.0587-0.0293 0.20533l-0.46933 1.3787q-0.088 0.29333-0.41067 0.11733-0.58666-0.38133-1.584-0.67466-0.99733-0.32267-1.9653-0.32267-1.1147 0-1.848 0.55733-0.70399 0.55733-0.70399 1.3787 0 0.90933 0.73333 1.2907 0.76266 0.38134 2.1413 0.58667 0.90933 0.14666 1.672 0.38133 0.792 0.20533 1.408 0.616 0.61599 0.41067 0.93866 1.0853 0.352 0.67467 0.352 1.76 0 1.2907-0.49867 2.1413-0.46933 0.85067-1.2613 1.3787t-1.76 0.76266q-0.93866 0.20534-1.8773 0.20534-0.46933 0-1.2907-0.11734-0.792-0.11733-1.6133-0.352-0.82134-0.264-1.3787-0.616-0.11733-0.088-0.176-0.14666-0.0587-0.088-0.0293-0.20534z"/>
   <path d="m143.74 570.98q-0.088-1.5547-0.14667-3.784-0.0293-2.2293-0.0293-5.192 0.0293-1.056 0.0293-2.2587 0.0293-1.232 0.088-2.4053 0.088-1.1733 0.20534-2.0533 0.0293-0.23466 0.14666-0.41066 0.14667-0.176 0.616-0.29334 0.82133-0.29333 1.9947-0.49866 1.2027-0.20534 2.64-0.20534 2.8453 0 4.312 1.672 1.4667 1.6427 1.4667 5.192 0 1.408-0.29333 2.64-0.264 1.232-0.82133 2.1707-0.55733 0.93866-1.408 1.5547-0.85067 0.58667-1.9947 0.76267-0.528 0.11733-1.2613 0.14667-0.704 0.0587-1.3787 0.0293-0.67467-0.0293-1.144-0.11733-0.20533-0.0587-0.32267-0.0587-0.11733 0-0.14666 0.176 0 0.23467 0 0.704t0 0.99733q0.0293 0.55733 0.0293 0.968 0.0293 0.264 0 0.38133 0 0.14667-0.32267 0.14667h-1.8773q-0.176 0-0.264-0.088-0.088-0.0587-0.11733-0.176zm2.5227-5.9547q0 0.23467 0.11734 0.32267 0.11733 0.088 0.264 0.11733 0.55733 0.176 1.232 0.29333 0.70399 0.088 1.232 0.088t1.0853-0.20533q0.58666-0.20533 1.0853-0.73333 0.49866-0.528 0.82133-1.5253 0.32267-1.0267 0.32267-2.64 0-2.7573-0.88-3.784-0.88-1.056-2.3173-1.056-0.704 0-1.3493 0.11734-0.64534 0.088-1.144 0.29333-0.14667 0.0587-0.23467 0.14667-0.088 0.088-0.088 0.23466-0.0587 0.704-0.088 1.6133-0.0293 0.90934-0.0587 1.9067 0 0.968-0.0293 1.9067 0 0.93867 0 1.7013 0 0.76267 0.0293 1.2027z"/>
   <path d="m162.98 568.19q-1.4667 0-2.728-0.32267-1.232-0.352-1.9947-1.2907-0.76267-0.93866-0.76267-2.728 0-1.496 0.528-2.464t1.3787-1.4667q0.85066-0.52799 1.7893-0.73333 0.93866-0.20533 1.76-0.20533 0.792 0 1.5547 0.088 0.792 0.0587 1.2907 0.14667 0.38134 0.088 0.38134-0.49867 0-1.5547-0.82134-2.2-0.79199-0.64533-2.4347-0.64533-1.1147 0-2.1413 0.38133-0.99733 0.352-1.6427 0.73333-0.23467 0.11734-0.32267 0.088-0.088-0.0293-0.11733-0.23466l-0.20534-1.2613q-0.0293-0.264 0-0.352 0.0587-0.088 0.23467-0.20534 0.704-0.46933 1.8187-0.76266 1.1147-0.29334 2.4347-0.29334 1.9067 0 3.0213 0.44 1.144 0.44 1.7013 1.2027 0.58666 0.73333 0.76266 1.7013 0.20534 0.93867 0.23467 1.9947 0 1.408-0.0293 2.64 0 1.2027-0.0587 2.376-0.0293 1.1733-0.14667 2.4053-0.0587 0.264-0.20533 0.44-0.11733 0.14667-0.49866 0.32267-0.41067 0.176-1.056 0.32266-0.616 0.11734-1.2907 0.20534-0.67466 0.088-1.32 0.11733-0.64533 0.0587-1.1147 0.0587zm0.14666-1.7013q0.264 0 0.67467-0.0293 0.44-0.0587 0.88-0.14667 0.46933-0.11733 0.792-0.29333 0.32266-0.176 0.38133-0.44 0.088-0.82133 0.14667-1.9067 0.0587-1.0853 0.0293-2.024 0-0.49867-0.352-0.64533-0.38133-0.14667-1.144-0.20534-0.73333-0.088-1.5253-0.088-0.41067 0-0.90933 0.11734-0.49867 0.11733-0.968 0.44-0.46933 0.32266-0.76267 0.968-0.29333 0.61599-0.29333 1.6133 0 0.88 0.38133 1.4667 0.38134 0.58667 1.056 0.88 0.704 0.29333 1.6133 0.29333z"/>
   <path d="m174.95 567.6q-0.82134-1.6133-1.5253-3.3733-0.67467-1.7893-1.2027-3.52-0.528-1.7307-0.90933-3.256-0.352-1.5253-0.55733-2.6693-0.0587-0.32267-0.0293-0.49867 0.0587-0.176 0.23467-0.176h2.1413q0.32267 0 0.38133 0.32267 0.14667 0.88 0.38133 2.024 0.23467 1.144 0.55734 2.3467 0.32266 1.2027 0.64533 2.3173t0.616 1.9947q0.32267 0.88 0.55733 1.32 0.0587 0.176 0.11734 0.14667 0.088-0.0293 0.11733-0.088 0.32266-0.528 0.58666-1.32 0.29334-0.82133 0.49867-1.7307 0.23467-0.90934 0.352-1.7013 0.14667-0.82133 0.14667-1.2613 0-0.41066 0-0.968 0-0.58666-0.0293-1.144 0-0.58667 0-1.0853 0-0.528 0-0.82133 0-0.352 0.29334-0.352h2.1707q0.11733 0 0.20533 0.088 0.11734 0.0587 0.11734 0.23467 0 0.704 0 1.7893 0.0293 1.056 0.088 2.464 0.0293 0.41066 0.176 1.056 0.14666 0.64534 0.352 1.3493 0.20533 0.704 0.44 1.3787 0.264 0.67467 0.46933 1.232 0.20533 0.528 0.352 0.792 0.14666 0.29333 0.29333 0 0.23467-0.49867 0.528-1.3787 0.32267-0.90933 0.64533-1.9947 0.32267-1.0853 0.58667-2.2587 0.29333-1.2027 0.528-2.3173 0.23466-1.144 0.38133-2.0533 0.0587-0.38133 0.46933-0.38133h1.8773q0.176 0 0.20533 0.176 0.0587 0.14667 0 0.44-0.14667 1.232-0.55733 2.9333-0.41067 1.672-0.99734 3.52-0.55733 1.8187-1.232 3.52-0.64533 1.672-1.3787 2.904-0.088 0.20533-0.20533 0.29333-0.088 0.0587-0.20534 0.0587h-1.6133q-0.14666 0-0.23466-0.0293-0.0587-0.0587-0.14667-0.23467-0.32267-0.55733-0.704-1.3493-0.352-0.82134-0.67467-1.6133-0.32266-0.82134-0.528-1.4373-0.20533-0.58666-0.43999 0-0.11734 0.38134-0.32267 0.88-0.176 0.49867-0.38133 0.99734-0.20534 0.49866-0.41067 0.93866-0.20533 0.41067-0.44 0.85067-0.20533 0.44-0.352 0.73333-0.0587 0.11733-0.176 0.20533-0.11733 0.0587-0.264 0.0587h-1.5253q-0.20533 0-0.264-0.0293-0.0587-0.0587-0.20533-0.32267z"/>
   <path d="m190.85 567.95q-0.32267 0-0.32267-0.264 0-3.1093 0-6.1893 0-3.1093 0-6.1893 0-0.23467 0.14667-0.352 0.176-0.14667 0.64533-0.29334 0.38133-0.11733 1.1147-0.29333 0.76266-0.176 1.6133-0.29333 0.88-0.14667 1.6133-0.14667 2.3173 0 3.5493 0.88t1.7013 2.4053q0.46933 1.496 0.46933 3.3147 0 1.2907-0.0587 2.6107-0.0293 1.2907-0.11734 2.4347-0.0587 1.1147-0.14666 1.9067-0.0293 0.352-0.11734 0.41066-0.088 0.0587-0.38133 0.0587h-1.6427q-0.29334 0-0.41067-0.0587-0.088-0.088-0.0587-0.352 0-0.176 0.0587-0.93866 0.0587-0.792 0.11733-1.8773 0.0587-1.0853 0.088-2.2 0.0293-1.144 0.0293-2.024 0-1.5547-0.352-2.5227-0.32267-0.99734-1.0267-1.4373-0.67466-0.46934-1.76-0.46934-0.55733 0-1.056 0.088-0.49867 0.088-0.90934 0.23467-0.20533 0.0293-0.352 0.20533-0.14666 0.14667-0.14666 0.55733 0 1.5547 0 3.3147 0 1.7307 0 3.5787 0 1.8187 0 3.6373 0 0.264-0.23467 0.264z"/>
  </g>
 </g>
</svg>
